#!OML:ASF E:\acrobat2\Project_11_07_03\Capture day 1\Session 1\Acrobat.ASF
:FULLY-SPECIFIED
:DEGREES
537
root 4.56656 17.9952 27.3921 230.209 -73.6874 148.742
lowerback 9.71094 -2.54086 4.05215
upperback 0.151373 -2.84678 2.40761
thorax -5.36518 -1.49682 0.647106
lowerneck -5.21896 -1.40863 -1.35948
upperneck -6.78785 -1.83364 4.93585
head -1.17347 -1.02889 1.76524
rclavicle -5.40694e-014 2.8625e-014
rhumerus -19.6025 -51.5962 -0.888771
rradius 29.3118
rwrist -18.1956
rhand -21.8331 -46.1014
rfingers 7.12502
rthumb 4.56997 -436.032
lclavicle -5.40694e-014 2.8625e-014
lhumerus -9.29101 6.65074 63.6469
lradius 17.921
lwrist 6.07524
lhand -31.0497 -20.5848
lfingers 7.12502
lthumb -4.33115 9.35093
rfemur -30.7364 -8.29384 -6.53301
rtibia 29.0021
rfoot -15.4819 -10.2354
rtoes -5.20634
lfemur -12.0429 -5.27836 -8.04706
ltibia -1.69951
lfoot -16.6761 8.68091
ltoes 44.3257
538
root 4.51361 18.0314 27.4898 229.748 -74.4634 148.831
lowerback 9.75553 -2.47538 4.19684
upperback 0.160176 -2.74336 2.36933
thorax -5.38758 -1.45031 0.513275
lowerneck -5.18163 -1.48281 -1.29207
upperneck -6.60371 -1.93866 4.73167
head -1.11998 -1.07399 1.68457
rclavicle -6.36111e-015 -2.38542e-014
rhumerus -19.5994 -51.2239 -0.427478
rradius 29.3673
rwrist -18.5758
rhand -22.1882 -46.7678
rfingers 7.12502
rthumb 4.22699 -436.706
lclavicle -6.36111e-015 -2.38542e-014
lhumerus -10.4225 7.83941 62.5813
lradius 17.8792
lwrist 6.17232
lhand -30.7833 -20.1487
lfingers 7.12502
lthumb -4.07389 9.79214
rfemur -29.3891 -7.36346 -6.44182
rtibia 26.8083
rfoot -14.9521 -10.3948
rtoes -4.3397
lfemur -11.7689 -4.53354 -8.16083
ltibia -1.52991
lfoot -15.529 8.31717
ltoes 44.8434
539
root 4.46088 18.0596 27.5833 229.654 -74.9483 148.616
lowerback 9.70459 -2.39359 3.99058
upperback 0.108784 -2.66043 2.26555
thorax -5.40619 -1.40456 0.506842
lowerneck -5.03586 -1.48014 -1.29653
upperneck -6.37726 -1.93214 4.66455
head -1.07368 -1.06306 1.66255
rclavicle 3.18055e-015 -3.33958e-014
rhumerus -19.3629 -51.4772 -0.159583
rradius 29.1825
rwrist -18.102
rhand -22.3514 -46.7323
rfingers 7.12502
rthumb 4.06941 -436.673
lclavicle 3.18055e-015 -3.33958e-014
lhumerus -11.6976 9.37434 61.3237
lradius 17.8565
lwrist 6.11748
lhand -30.5553 -19.8603
lfingers 7.12502
lthumb -3.85373 10.0846
rfemur -28.2042 -6.13845 -6.71463
rtibia 24.5523
rfoot -14.3694 -10.9125
rtoes -5.01605
lfemur -11.4291 -4.48031 -8.40359
ltibia -1.5507
lfoot -15.1885 8.45545
ltoes 43.9206
540
root 4.40597 18.0836 27.6725 229.816 -75.3349 148.23
lowerback 9.50515 -2.27222 3.71967
upperback 0.0590638 -2.54159 2.11314
thorax -5.3382 -1.33887 0.47398
lowerneck -4.73874 -1.41068 -0.562731
upperneck -6.42126 -1.89063 3.71328
head -1.15067 -1.04799 1.23698
rclavicle -3.89618e-014 1.59028e-014
rhumerus -19.1801 -52.1672 0.257573
rradius 28.8128
rwrist -17.0167
rhand -22.2781 -46.199
rfingers 7.12502
rthumb 4.14024 -436.138
lclavicle -3.89618e-014 1.59028e-014
lhumerus -12.8811 10.8293 59.978
lradius 17.8932
lwrist 6.0715
lhand -30.3233 -19.4924
lfingers 7.12502
lthumb -3.62964 10.4564
rfemur -27.1341 -4.84313 -7.11266
rtibia 22.3734
rfoot -13.9688 -11.3228
rtoes -3.50017
lfemur -11.0826 -4.93327 -8.69999
ltibia -1.69842
lfoot -15.4193 8.71285
ltoes 43.1093
541
root 4.34733 18.1068 27.7538 229.346 -75.8084 148.32
lowerback 9.41399 -2.15636 3.59068
upperback 0.0958338 -2.41213 1.99553
thorax -5.24491 -1.27155 0.399679
lowerneck -4.45259 -1.29696 0.202755
upperneck -6.52038 -1.78819 2.8477
head -1.24279 -1.00483 0.841365
rclavicle 4.77083e-015 -2.70347e-014
rhumerus -18.914 -51.6417 0.460421
rradius 28.7037
rwrist -17.1239
rhand -22.1551 -46.1699
rfingers 7.12502
rthumb 4.25901 -436.107
lclavicle 4.77083e-015 -2.70347e-014
lhumerus -13.9784 12.2106 58.5342
lradius 17.9574
lwrist 5.98253
lhand -29.9327 -19.0118
lfingers 7.12502
lthumb -3.25251 10.9431
rfemur -25.8514 -3.36911 -7.25541
rtibia 20.1218
rfoot -13.5256 -11.8779
rtoes -1.09691
lfemur -10.4934 -5.17356 -8.86156
ltibia -1.88727
lfoot -15.5987 8.49963
ltoes 43.7875
542
root 4.28908 18.126 27.8288 228.206 -76.4626 149.087
lowerback 9.30313 -2.07006 3.61149
upperback 0.133157 -2.30283 2.00573
thorax -5.14131 -1.21748 0.37771
lowerneck -4.40194 -1.21473 0.201064
upperneck -6.29722 -1.6734 2.85518
head -1.18277 -0.941388 0.842437
rclavicle 7.39479e-014 -5.88403e-014
rhumerus -18.6018 -51.1722 0.536074
rradius 28.6681
rwrist -16.9849
rhand -21.7127 -46.3476
rfingers 7.12502
rthumb 4.68617 -436.276
lclavicle 7.39479e-014 -5.88403e-014
lhumerus -15.1496 13.3042 57.0472
lradius 18.0905
lwrist 6.32606
lhand -29.5005 -18.7568
lfingers 7.12502
lthumb -2.83509 11.2041
rfemur -24.5935 -1.85814 -6.9996
rtibia 17.9608
rfoot -13.0857 -12.7828
rtoes -0.807758
lfemur -9.89188 -5.28235 -8.66924
ltibia -2.0952
lfoot -15.9426 8.00952
ltoes 44.9161
